<svg width="440" height="399" viewBox="0 0 440 399" fill="none" xmlns="http://www.w3.org/2000/svg">
<path d="M186.5 67H204L235.5 73.5L272.5 67L305.5 79.5L364.5 87.5L414 127.5L434.5 190L439 254L415 307.5L388.5 340.5L342 367L272.5 392H242.5H212L194.5 397.5L160.5 392H135.5L102 367H78.5L30.5 323.5L14.5 294L0.5 276.5V225.5V186.5L30.5 133L78.5 101L116 73.5H153.5L186.5 67Z" fill="#F89A08" stroke="#F89A08"/>
<path d="M190 91H200L202 81.5L208.5 59.5L218.5 40L245.5 10L269.5 0L277 15.5L269.5 31.5L260.5 62L251 86L260.5 91L254 107.5L245.5 113H224H211H190V91Z" fill="#574929"/>
</svg>
