<svg width="414" height="107" viewBox="0 0 414 107" fill="none" xmlns="http://www.w3.org/2000/svg">
<path d="M7 19.5L42.5 0H368L396.5 19.5L414 46L402.5 81.5L368 106.5H118H35.5L17 89.5L0 74.5L7 19.5Z" fill="#F89A08"/>
<path d="M175.8 68.5333C174 68.5333 172.322 68.1889 170.767 67.5C169.233 66.8111 168.011 65.9667 167.1 64.9667L168.467 59.3333C169.178 60.6222 170.2 61.7444 171.533 62.7C172.867 63.6556 174.344 64.1333 175.967 64.1333C177.344 64.1333 178.467 63.7222 179.333 62.9C180.2 62.0556 180.633 61.0333 180.633 59.8333C180.633 58.9 180.411 58.1333 179.967 57.5333C179.544 56.9333 179.044 56.4556 178.467 56.1C177.889 55.7222 177.411 55.4444 177.033 55.2667L173.433 53.4667C172.633 53.0444 171.789 52.5222 170.9 51.9C170.011 51.2778 169.256 50.4667 168.633 49.4667C168.011 48.4444 167.7 47.1556 167.7 45.6C167.7 44 168.067 42.5889 168.8 41.3667C169.533 40.1444 170.567 39.1889 171.9 38.5C173.233 37.8111 174.778 37.4667 176.533 37.4667C178.222 37.4667 179.722 37.7556 181.033 38.3333C182.344 38.8889 183.389 39.4778 184.167 40.1L182.833 45.6667C182.122 44.6222 181.178 43.7222 180 42.9667C178.844 42.1889 177.611 41.8 176.3 41.8C175.1 41.8 174.156 42.1444 173.467 42.8333C172.778 43.5 172.433 44.3222 172.433 45.3C172.433 45.9889 172.589 46.5778 172.9 47.0667C173.233 47.5556 173.633 47.9667 174.1 48.3C174.589 48.6111 175.067 48.8889 175.533 49.1333L179.2 50.9667C179.711 51.2111 180.311 51.5556 181 52C181.711 52.4222 182.4 52.9667 183.067 53.6333C183.733 54.3 184.278 55.1111 184.7 56.0667C185.144 57.0222 185.367 58.1667 185.367 59.5C185.367 61.2333 184.956 62.7889 184.133 64.1667C183.333 65.5222 182.222 66.5889 180.8 67.3667C179.378 68.1444 177.711 68.5333 175.8 68.5333ZM190.098 68V51.8H185.964V48H190.198V41.3333H194.698V48H199.164V51.8H194.798V68H190.098ZM208.627 68.4C206.804 68.4 205.138 67.9333 203.627 67C202.116 66.0667 200.904 64.8111 199.993 63.2333C199.104 61.6556 198.66 59.9111 198.66 58C198.66 56.0889 199.104 54.3444 199.993 52.7667C200.904 51.1889 202.116 49.9333 203.627 49C205.138 48.0667 206.804 47.6 208.627 47.6C209.96 47.6 211.193 47.8444 212.327 48.3333C213.482 48.8 214.471 49.4667 215.293 50.3333V48H219.46V68H215.293V65.6667C214.471 66.5111 213.482 67.1778 212.327 67.6667C211.193 68.1556 209.96 68.4 208.627 68.4ZM209.227 64.2C210.338 64.2 211.349 63.9222 212.26 63.3667C213.193 62.8111 213.927 62.0667 214.46 61.1333C215.016 60.2 215.293 59.1556 215.293 58C215.293 56.8667 215.016 55.8333 214.46 54.9C213.927 53.9444 213.204 53.1889 212.293 52.6333C211.382 52.0778 210.36 51.8 209.227 51.8C208.116 51.8 207.093 52.0778 206.16 52.6333C205.249 53.1889 204.516 53.9333 203.96 54.8667C203.427 55.8 203.16 56.8444 203.16 58C203.16 59.1333 203.427 60.1778 203.96 61.1333C204.516 62.0667 205.249 62.8111 206.16 63.3667C207.071 63.9222 208.093 64.2 209.227 64.2ZM222.924 68V48H227.191V51.5333C227.902 50.3778 228.813 49.4667 229.924 48.8C231.035 48.1333 232.358 47.8 233.891 47.8L234.958 52.1667C234.535 52.0333 234.058 51.9667 233.524 51.9667C231.747 51.9667 230.313 52.5333 229.224 53.6667C228.158 54.8 227.624 56.4222 227.624 58.5333V68H222.924ZM238.525 68V51.8H234.392V48H238.625V41.3333H243.125V48H247.592V51.8H243.225V68H238.525Z" fill="black"/>
</svg>
